<?xml version="1.0" encoding="UTF-8" standalone="no"?>
<!DOCTYPE svg PUBLIC "-//W3C//DTD SVG 1.1//EN"
 "http://www.w3.org/Graphics/SVG/1.1/DTD/svg11.dtd">
<!-- Generated by graphviz version 2.47.0 (20210316.0004)
 -->
<!-- Title: dependencies Pages: 1 -->
<svg width="504pt" height="284pt"
 viewBox="0.00 0.00 504.00 284.00" xmlns="http://www.w3.org/2000/svg" xmlns:xlink="http://www.w3.org/1999/xlink">
<g id="graph0" class="graph" transform="scale(1 1) rotate(0) translate(4 280)">
<title>dependencies</title>
<polygon fill="white" stroke="transparent" points="-4,4 -4,-280 500,-280 500,4 -4,4"/>
<text text-anchor="start" x="227.01" y="-42.4" font-family="Times-12" font-weight="bold" font-size="14.00">Legend</text>
<polygon fill="#ffffb3" stroke="transparent" points="14,-10 14,-30 34,-30 34,-10 14,-10"/>
<text text-anchor="start" x="37.63" y="-15.4" font-family="Times-12" font-size="14.00"> &#160;Declarations</text>
<polygon fill="#8dd3c7" stroke="transparent" points="127,-10 127,-30 147,-30 147,-10 127,-10"/>
<text text-anchor="start" x="150.73" y="-15.4" font-family="Times-12" font-size="14.00"> &#160;Module</text>
<polygon fill="#80b1d3" stroke="transparent" points="213,-10 213,-30 233,-30 233,-10 213,-10"/>
<text text-anchor="start" x="236.78" y="-15.4" font-family="Times-12" font-size="14.00"> &#160;Bootstrap</text>
<polygon fill="#fdb462" stroke="transparent" points="310,-10 310,-30 330,-30 330,-10 310,-10"/>
<text text-anchor="start" x="333.67" y="-15.4" font-family="Times-12" font-size="14.00"> &#160;Providers</text>
<polygon fill="#fb8072" stroke="transparent" points="406,-10 406,-30 426,-30 426,-10 406,-10"/>
<text text-anchor="start" x="429.73" y="-15.4" font-family="Times-12" font-size="14.00"> &#160;Exports</text>
<g id="clust1" class="cluster">
<title>cluster_CartModule</title>
<polygon fill="none" stroke="black" stroke-dasharray="1,5" points="109,-70 109,-268 387,-268 387,-70 109,-70"/>
</g>
<g id="clust3" class="cluster">
<title>cluster_CartModule_imports</title>
<polygon fill="none" stroke="black" points="255,-78 255,-130 379,-130 379,-78 255,-78"/>
</g>
<g id="clust6" class="cluster">
<title>cluster_CartModule_providers</title>
<polygon fill="none" stroke="black" points="117,-78 117,-130 247,-130 247,-78 117,-78"/>
</g>
<g id="clust4" class="cluster">
<title>cluster_CartModule_exports</title>
<polygon fill="none" stroke="black" points="198,-208 198,-260 300,-260 300,-208 198,-208"/>
</g>
<!-- ProductsModule -->
<g id="node1" class="node">
<title>ProductsModule</title>
<polygon fill="#8dd3c7" stroke="black" points="371.04,-122 368.04,-126 347.04,-126 344.04,-122 262.96,-122 262.96,-86 371.04,-86 371.04,-122"/>
<text text-anchor="middle" x="317" y="-99.8" font-family="Times,serif" font-size="14.00">ProductsModule</text>
</g>
<!-- CartModule -->
<g id="node2" class="node">
<title>CartModule</title>
<polygon fill="#8dd3c7" stroke="black" points="290.65,-187 287.65,-191 266.65,-191 263.65,-187 207.35,-187 207.35,-151 290.65,-151 290.65,-187"/>
<text text-anchor="middle" x="249" y="-164.8" font-family="Times,serif" font-size="14.00">CartModule</text>
</g>
<!-- ProductsModule&#45;&gt;CartModule -->
<g id="edge1" class="edge">
<title>ProductsModule&#45;&gt;CartModule</title>
<path fill="none" stroke="black" d="M276.78,-122.11C276.78,-122.11 276.78,-140.99 276.78,-140.99"/>
<polygon fill="black" stroke="black" points="273.28,-140.99 276.78,-150.99 280.28,-140.99 273.28,-140.99"/>
</g>
<!-- CartService  -->
<g id="node3" class="node">
<title>CartService </title>
<polygon fill="#fb8072" stroke="black" points="291.58,-252 206.42,-252 206.42,-216 291.58,-216 291.58,-252"/>
<text text-anchor="middle" x="249" y="-229.8" font-family="Times,serif" font-size="14.00">CartService </text>
</g>
<!-- CartModule&#45;&gt;CartService  -->
<g id="edge2" class="edge">
<title>CartModule&#45;&gt;CartService </title>
<path fill="none" stroke="black" stroke-dasharray="5,2" d="M249,-187.11C249,-187.11 249,-205.99 249,-205.99"/>
<polygon fill="black" stroke="black" points="245.5,-205.99 249,-215.99 252.5,-205.99 245.5,-205.99"/>
</g>
<!-- CartService -->
<g id="node4" class="node">
<title>CartService</title>
<ellipse fill="#fdb462" stroke="black" cx="182" cy="-104" rx="56.73" ry="18"/>
<text text-anchor="middle" x="182" y="-99.8" font-family="Times,serif" font-size="14.00">CartService</text>
</g>
<!-- CartService&#45;&gt;CartModule -->
<g id="edge3" class="edge">
<title>CartService&#45;&gt;CartModule</title>
<path fill="none" stroke="black" d="M222.9,-116.53C222.9,-116.53 222.9,-140.85 222.9,-140.85"/>
<polygon fill="black" stroke="black" points="219.4,-140.85 222.9,-150.85 226.4,-140.85 219.4,-140.85"/>
</g>
</g>
</svg>
